<?xml version="1.0" encoding="UTF-8" standalone="no"?><!DOCTYPE svg PUBLIC "-//W3C//DTD SVG 1.1//EN" "http://www.w3.org/Graphics/SVG/1.1/DTD/svg11.dtd"><svg width="100%" height="100%" viewBox="0 0 1667 1667" version="1.1" xmlns="http://www.w3.org/2000/svg" xmlns:xlink="http://www.w3.org/1999/xlink" xml:space="preserve" xmlns:serif="http://www.serif.com/" style="fill-rule:evenodd;clip-rule:evenodd;stroke-linejoin:round;stroke-miterlimit:2;"><g><path d="M573.5,64.1c-38,5.5 -66.9,25.7 -92.5,64.3c-2.9,4.3 -9.7,16.5 -15.2,27c-15,28.5 -37.4,70.2 -51.8,96.1c-32.6,58.9 -41,74.3 -96.8,177c-10.1,18.7 -24.2,44.6 -31.2,57.5c-12,22.1 -28.6,52.7 -67.8,125c-9,16.8 -22,40.6 -28.7,53c-15.9,29.1 -18.6,34.7 -22.4,45.2c-5,14.2 -6.4,23.5 -5.8,36.7c0.8,17.9 6,31.3 18,46.7c8,10.2 10.1,14.8 10.1,21.9c0,7.1 -2.4,12.3 -8.7,19.3c-2.3,2.5 -22,20.6 -43.7,40.2c-21.7,19.6 -41.8,38.1 -44.5,41.1c-13.2,14.1 -18.8,27.5 -18.7,44.3c0.1,15.6 2.7,22.9 19.3,54.1c5.9,11 19.3,36.4 29.9,56.5c10.6,20.1 24.5,46.4 31,58.5c6.5,12.1 21.3,40 33,62c11.7,22 26.1,49 32,60c5.9,11 15.4,28.8 21,39.5c5.7,10.7 11.3,21.3 12.5,23.5c1.3,2.2 8,14.8 15,28c7,13.2 20.4,38.4 29.8,56c36.6,69 60.4,113.8 70,132c12.7,24.3 18.7,33.5 28.4,43.6c14.5,15.2 27.5,22.8 47.6,27.8c8.2,2.1 8.5,2.1 379.7,2.4l371.5,0.2l8.7,-2.2c21.3,-5.4 36.1,-15.8 47.2,-33c2.4,-3.8 11,-20.5 19.1,-37.3c26.8,-55.4 54.5,-112 71.8,-146.5c42.7,-85.4 123.7,-253.5 169.7,-352c5.9,-12.7 15.4,-33.1 21.2,-45.5c43,-91.5 53.1,-113.8 57.1,-125.5c2.8,-8.3 3.1,-10.1 3.1,-23l0.1,-14l-3.7,-7.8c-7.8,-16.4 -13.8,-22.3 -49.8,-49.2c-40.3,-30.2 -44.6,-34.2 -47.1,-43.7c-2.1,-7.6 -0.8,-10.8 10.1,-25.8c10.9,-15.1 13.4,-33.1 7.5,-53.6c-3.8,-12.8 -4.3,-13.9 -50,-100.9c-14.4,-27.3 -34.5,-65.8 -63.3,-121c-6.8,-13.2 -17.3,-33.2 -23.2,-44.5c-5.9,-11.3 -16.9,-32.4 -24.5,-47c-7.6,-14.6 -22.3,-42.9 -32.8,-63c-10.4,-20.1 -25.8,-49.8 -34.2,-66c-41.4,-79.9 -39,-75.7 -50.4,-89.3c-10.8,-12.9 -24.9,-23.3 -41.2,-30.2c-20.1,-8.7 -34.9,-10.7 -96.9,-13.5c-36.9,-1.7 -284.7,-3.2 -326.8,-2c-66.9,1.8 -105.3,1.2 -142.7,-2.5c-16.2,-1.6 -40.4,-1.8 -50,-0.4Zm188.5,79.1c10,1.9 16.3,6.5 19.6,14.3c1,2.5 1.9,8.8 2.4,16.5c1.7,25.6 6.5,33.4 44.9,72.5c50.9,51.8 71.1,72.4 132.1,135c33.8,34.6 74.8,76.5 91,93c16.2,16.5 32.5,34.1 36.3,39c8.6,11.5 17,28.3 19.9,40c1.8,7.2 2.2,11.8 2.2,23c-0.1,12.5 -0.9,19.4 -7.8,63c-4.2,26.9 -11.1,71.7 -15.2,99.4c-4.1,27.7 -12.3,83.1 -18.4,123c-6,39.9 -13,86.5 -15.5,103.6c-8.1,54.6 -15.5,83.2 -31.9,123c-6.2,14.8 -15.7,33 -31.9,60.7c-17.4,29.7 -24.1,41.8 -48.7,87.3c-31.7,58.6 -34.3,62.7 -50,78.6c-14.3,14.3 -26.1,22.1 -38.7,25.4c-16.6,4.3 -33.5,-1.1 -46,-14.8c-4.6,-5.2 -24.7,-35.2 -84.5,-126.2c-41.7,-63.5 -47.5,-73.7 -58.6,-103.6c-12.1,-32.4 -20.2,-66.7 -30.2,-128.4c-2.8,-17.1 -8,-48.6 -11.5,-70c-15.5,-93.9 -23.5,-173.9 -29,-288.5c-2.6,-56.1 -3.2,-78.1 -6.5,-226.5c-1.2,-53.2 -1.7,-63.4 -7,-147.3c-4.3,-66.5 -4.3,-71.8 0,-80.1c3.5,-6.9 10.3,-11.3 20.5,-13.1c7,-1.2 155.4,-0.2 162.5,1.2Zm193.3,-1.1c61.8,-0.1 65.1,3.7 89.5,4.4c14.1,0.4 40.1,0.5 57.7,0.2c34.7,-0.7 42.7,-0.1 51.2,3.8c5.8,2.6 14.1,9.9 18.3,16c1.5,2.2 9.2,16.1 17,31c44.7,84.4 63,119.1 81,153c7,13.2 20.9,39.5 31,58.5c10,19 24.2,45.7 31.5,59.5c13.9,26.2 41.8,79.1 66.3,125.5c7.9,15.1 18.2,34.5 22.8,43c4.5,8.5 8.8,17.6 9.4,20.2c1.5,5.7 0.2,10.4 -4.3,15.4c-6.7,7.7 -14.8,8.7 -25.5,3.2c-9,-4.6 -45.7,-27 -61.6,-37.5c-39,-26 -78.4,-57.6 -122.2,-97.9c-17.7,-16.3 -71.6,-70.1 -100,-99.9c-61.4,-64.4 -123.5,-130.1 -172.9,-182.5c-12.6,-13.5 -31.1,-33 -41,-43.3c-31.7,-33.1 -36,-38.5 -37.1,-46.8c-1.7,-12.5 6.3,-22.5 19.7,-24.8c3,-0.5 34.1,-0.9 69.2,-1Zm-435.5,96.4c2.1,1.8 3.3,4 4,7.3c0.6,2.8 1,43.3 1.1,100.7c0.2,87.7 0.4,97.5 2.1,113.8c5.6,51.1 4.8,71.7 -4.1,100.5c-11.1,36 -6.6,68.1 12.9,92.3c10,12.5 11.1,16.1 13.7,47.4c4.5,54 12.9,129.6 21.1,189.5c5.2,38.5 14.4,98.7 16,105.5c3,13 1.2,21.6 -5.6,26.1c-8.2,5.4 -14.6,3.9 -26.5,-6.2c-3.8,-3.3 -36,-27.9 -71.5,-54.5c-99.6,-74.9 -154.7,-117.4 -171.5,-132.3c-14.1,-12.5 -51.8,-46.6 -58.6,-53c-9.3,-8.8 -12.4,-15.5 -12.3,-26.1c0,-6 0.7,-9.7 2.6,-14.6c2.2,-6 17.3,-35.3 37.8,-73.9c4.3,-8 14.3,-26.9 22.3,-42c17,-32.3 27.9,-52.9 46.7,-88.5c7.6,-14.3 22.4,-42.4 33,-62.5c10.6,-20.1 25,-47.3 32,-60.5c38,-71.7 79,-150.7 82,-157.9c1.4,-3.3 4.1,-7.7 6.1,-9.8c3.2,-3.4 4.1,-3.8 8.7,-3.8c3.9,-0 5.7,0.6 8,2.5Zm663.2,363.7c8.5,2.6 17.4,7.9 57.5,34.2c30.8,20.2 130,87.1 134.9,90.9c10.8,8.6 12.6,19.8 4.9,31c-2.2,3.1 -32.5,31.7 -86.3,81.2c-81.4,75 -98.1,89.9 -136.5,122.9c-12.1,10.4 -24.5,21.3 -27.5,24.1c-9.4,8.9 -13.9,10.2 -21.7,6.4c-5.4,-2.6 -8.9,-8.3 -9.8,-15.9c-0.4,-3.9 0.6,-14.3 3.5,-35.5c2.2,-16.5 9.2,-68.7 15.5,-116c16.1,-120.4 27,-195.9 29.3,-202.6c2.8,-8 4.7,-11.4 8.8,-15.4c6.8,-6.9 16.2,-8.6 27.4,-5.3Zm305.8,206c2.8,1.1 7.4,3.7 10.1,5.8c10.2,8.1 13.4,15.5 11.2,26.1c-1.4,6.9 -3,10.7 -26.4,60.9c-50.3,108.2 -73.7,157.4 -148.7,312c-37.9,78.1 -49.9,102.9 -68,140.5c-10.6,22 -25.2,52.4 -32.6,67.7c-7.3,15.2 -16.5,34.5 -20.5,43c-10.7,22.9 -17.7,36.7 -21.9,42.8c-5,7.3 -13.5,15.2 -19.8,18.4c-10.2,5.2 -12,5.3 -63.7,5.1c-26.4,-0.1 -48.8,-0.6 -49.8,-1c-1,-0.4 -6.7,-0.5 -12.5,-0.1c-55.5,3.3 -67.8,2.9 -92.2,-2.9c-26.7,-6.4 -32.3,-7 -65.5,-7c-24.5,0 -33.5,0.5 -49,2.3c-60.2,6.9 -116.2,9 -258.7,9.3c-83.6,0.2 -78,0.7 -82.6,-8.1c-3.1,-6 -2.8,-15.9 0.7,-20.8c4.2,-6 11.2,-8.4 53.1,-18.2c104.7,-24.6 184.7,-38.1 265.1,-45c42.2,-3.6 47.2,-6.3 92,-50.7c33.8,-33.4 33.7,-33.4 51.4,-34.2c8.2,-0.5 11.8,-1.1 14.1,-2.5c4,-2.4 8.5,-9.1 12.7,-19.1c1.9,-4.4 7.6,-16.8 12.7,-27.5c5.1,-10.7 15.7,-33.2 23.5,-50c37.5,-80.4 44,-93.5 56.1,-113.1c18.8,-30.4 37.5,-50.6 70.3,-76.1c45.5,-35.4 72.2,-58.2 154.6,-132.7c64.3,-58.1 76.9,-69 114.5,-99.2c24.7,-19.8 36.1,-26.2 50.5,-28.2c4.9,-0.7 13.7,0.4 19.3,2.5Zm-1233.2,84.8c10.1,5 76.1,48.3 106.9,70.1c6.6,4.7 16.5,11.6 22,15.4c24.6,17 96.5,68.6 148.5,106.6c10.2,7.5 28,20.5 39.5,28.9c40.5,29.6 48.1,35.5 57,44.6c11,11.1 21.7,24.7 36.1,45.9c5.9,8.8 19.2,27.5 29.4,41.5c24.8,33.9 61.2,86.1 65,93.3c8.5,15.6 3.4,27.7 -14,33.1c-8.9,2.8 -47.3,12.9 -190.5,49.8c-120.4,31 -120.7,31.1 -127.6,31.1c-8.4,0 -15.5,-3.6 -20.3,-10.2c-1.8,-2.5 -11.9,-21.3 -22.6,-41.6c-10.6,-20.4 -26.9,-51.6 -36.3,-69.5c-9.3,-17.9 -24.3,-46.5 -33.2,-63.5c-8.9,-17.1 -21.8,-41.8 -28.7,-55c-6.9,-13.2 -20.5,-39.3 -30.3,-58c-9.8,-18.7 -25.9,-49.5 -35.8,-68.5c-9.9,-19 -26.5,-50.7 -37,-70.4c-24.5,-46.1 -24.2,-45.5 -24.2,-58.1c0,-14.3 1.2,-16.2 24.4,-37.9c23,-21.5 28,-25.6 36.7,-30.2c6.7,-3.5 7.2,-3.6 15.5,-3.2c8.1,0.4 9.4,0.8 19.5,5.8Z" style="fill:#fff;fill-rule:nonzero;stroke:#fff;stroke-width:10px;"/></g></svg>